<svg xmlns="http://www.w3.org/2000/svg" width="1200" height="800" viewBox="0 0 1200 800">
  <defs>
    <linearGradient id="g" x1="0" x2="1">
      <stop offset="0%" stop-color="#eef2ff"/>
      <stop offset="100%" stop-color="#f8f6ff"/>
    </linearGradient>
  </defs>
  <rect width="100%" height="100%" fill="url(#g)"/>
  <rect x="48" y="48" width="1104" height="704" rx="16" fill="#fff" stroke="#e6e9ff" stroke-width="2"/>
  <g transform="translate(120,160)">
    <rect x="0" y="0" width="960" height="320" rx="12" fill="#f4f6ff"/>
    <g transform="translate(40,40)">
      <rect x="0" y="0" width="200" height="200" rx="10" fill="#fff" stroke="#e9eefb"/>
      <rect x="240" y="0" width="640" height="200" rx="10" fill="#fff" stroke="#e9eefb"/>
    </g>
  </g>
  <g transform="translate(0,520)">
    <rect x="120" y="0" width="960" height="120" rx="8" fill="#fff" stroke="#e6e9ff"/>
    <text x="180" y="78" font-family="Segoe UI, Arial" font-size="42" fill="#667eea">En cours de développement</text>
  </g>
  <g transform="translate(900,120)">
    <circle cx="0" cy="0" r="40" fill="#667eea" opacity="0.12"/>
    <path d="M-12 -8 L0 -24 L12 -8 L4 -8 L4 16 L-4 16 L-4 -8 Z" fill="#667eea" transform="scale(1.6) translate(-6,6)"/>
  </g>
</svg>